<?xml version="1.0" encoding="UTF-8"?>
<!-- Generator: Adobe Illustrator 15.0.2, SVG Export Plug-In . SVG Version: 6.00 Build 0)  -->
<!DOCTYPE svg PUBLIC "-//W3C//DTD SVG 1.1//EN" "http://www.w3.org/Graphics/SVG/1.1/DTD/svg11.dtd">
<svg xmlns="http://www.w3.org/2000/svg" xmlns:xlink="http://www.w3.org/1999/xlink" version="1.1" id="Layer_1" x="0px" y="0px" width="512px" height="512px" viewBox="0 0 512 512" enable-background="new 0 0 512 512" xml:space="preserve">
<g>
	<g>
		<path fill="#FFFFFF" d="M462.223,0H49.778C22.285,0,0,22.285,0,49.778v412.445C0,489.715,22.285,512,49.778,512h412.445    C489.715,512,512,489.715,512,462.223V49.778C512,22.285,489.715,0,462.223,0z M400.736,307.417v37.958    c-0.743,7.514-6.569,13.431-14.035,14.361l-214.364,0.014c-15.872,0-29.403-5.118-40.583-15.333    c-11.171-10.229-16.761-22.598-16.761-37.132c0-11.562,3.777-21.841,11.337-30.896c7.565-9.027,17.143-15.319,28.736-18.889    l187.309-53.524H115v-36.239c0.107-7.607,5.482-13.903,12.652-15.479h215.736c15.875,0,29.389,5.076,40.569,15.208    c11.181,10.149,16.778,22.261,16.778,36.354c0,11.768-3.819,22.122-11.431,31.083c-7.618,8.973-17.417,15.223-29.403,18.736    l-187.565,53.778H400.736z"/>
	</g>
</g>
</svg>
